<svg width="28" height="20" viewBox="0 0 28 20" fill="none" xmlns="http://www.w3.org/2000/svg">
<g clip-path="url(#clip0_132_225)">
<path d="M0.25 0.625H27.75V19.375H0.25V0.625Z" fill="#4CAF50"/>
<path d="M25.25 10L14 17.5L2.75 10L14 2.5L25.25 10Z" fill="#FFEB3B"/>
<path d="M14 5.625C13.4255 5.625 12.8566 5.73816 12.3258 5.95803C11.795 6.17789 11.3127 6.50015 10.9064 6.90641C10.5002 7.31266 10.1779 7.79496 9.95803 8.32576C9.73816 8.85656 9.625 9.42547 9.625 10C9.625 10.5745 9.73816 11.1434 9.95803 11.6742C10.1779 12.205 10.5002 12.6873 10.9064 13.0936C11.3127 13.4998 11.795 13.8221 12.3258 14.042C12.8566 14.2618 13.4255 14.375 14 14.375C14.5745 14.375 15.1434 14.2618 15.6742 14.042C16.205 13.8221 16.6873 13.4998 17.0936 13.0936C17.4998 12.6873 17.8221 12.205 18.042 11.6742C18.2618 11.1434 18.375 10.5745 18.375 10C18.375 9.42547 18.2618 8.85656 18.042 8.32576C17.8221 7.79496 17.4998 7.31266 17.0936 6.90641C16.6873 6.50015 16.205 6.17789 15.6742 5.95803C15.1434 5.73816 14.5745 5.625 14 5.625Z" fill="#3F51B5"/>
<path d="M10.1281 7.96749C9.91624 8.36999 9.76811 8.80937 9.69061 9.27312C11.0994 9.09812 14.9287 8.92187 18.1494 11.3806C18.2937 10.9462 18.375 10.4825 18.375 9.99999C18.375 9.99999 18.375 9.99749 18.375 9.99624C15.2862 7.90374 11.9112 7.81874 10.1281 7.96749Z" fill="white"/>
</g>
<defs>
<clipPath id="clip0_132_225">
<rect width="28" height="20" fill="white"/>
</clipPath>
</defs>
</svg>
