<svg width="53" height="41" viewBox="0 0 53 41" fill="none" xmlns="http://www.w3.org/2000/svg">
<path d="M52.7619 10.75L46.5119 14.1875L40.2619 20.125V40.5H49.0119C51.0831 40.5 52.7619 38.8212 52.7619 36.75V10.75Z" fill="#4CAF50"/>
<path d="M0.261871 10.75L4.77937 12.8875L12.7619 20.125V40.5H4.01187C1.94062 40.5 0.261871 38.8212 0.261871 36.75V10.75Z" fill="#1E88E5"/>
<path d="M40.2619 4.5L26.5119 14.8125L12.7619 4.5L11.5119 11.75L12.7619 20.125L26.5119 30.4375L40.2619 20.125L41.5119 11.75L40.2619 4.5Z" fill="#E53935"/>
<path d="M0.261871 5.8725V10.75L12.7619 20.125V4.5L8.85687 1.57375C7.92687 0.87625 6.79687 0.5 5.63437 0.5C2.66687 0.5 0.261871 2.905 0.261871 5.8725Z" fill="#C62828"/>
<path d="M52.7619 5.8725V10.75L40.2619 20.125V4.5L44.1669 1.57375C45.0969 0.87625 46.2269 0.5 47.3894 0.5C50.3569 0.5 52.7619 2.905 52.7619 5.8725Z" fill="#FBC02D"/>
</svg>
