<svg width="46" height="47" viewBox="0 0 46 47" fill="none" xmlns="http://www.w3.org/2000/svg">
<path d="M35.2719 45.988L10.2719 46.0118C4.77187 46.0168 0.268125 41.5218 0.261875 36.0218L0.238125 11.0218C0.233125 5.52179 4.72813 1.01804 10.2281 1.01179L35.2281 0.988041C40.7281 0.983041 45.2319 5.47804 45.2381 10.978L45.2619 35.978C45.2681 41.4793 40.7719 45.983 35.2719 45.988Z" fill="url(#paint0_radial_140_1237)"/>
<path d="M35.2719 45.988L10.2719 46.0118C4.77187 46.0168 0.268125 41.5218 0.261875 36.0218L0.238125 11.0218C0.233125 5.52179 4.72813 1.01804 10.2281 1.01179L35.2281 0.988041C40.7281 0.983041 45.2319 5.47804 45.2381 10.978L45.2619 35.978C45.2681 41.4793 40.7719 45.983 35.2719 45.988Z" fill="url(#paint1_radial_140_1237)"/>
<path d="M22.7506 32.2505C17.9269 32.2505 14.0006 28.3255 14.0006 23.5005C14.0006 18.6755 17.9269 14.7505 22.7506 14.7505C27.5744 14.7505 31.5006 18.6755 31.5006 23.5005C31.5006 28.3255 27.5744 32.2505 22.7506 32.2505ZM22.7506 17.2505C19.3044 17.2505 16.5006 20.0542 16.5006 23.5005C16.5006 26.9467 19.3044 29.7505 22.7506 29.7505C26.1969 29.7505 29.0006 26.9467 29.0006 23.5005C29.0006 20.0542 26.1969 17.2505 22.7506 17.2505Z" fill="white"/>
<path d="M32.1256 16.0005C33.1612 16.0005 34.0006 15.161 34.0006 14.1255C34.0006 13.09 33.1612 12.2505 32.1256 12.2505C31.0901 12.2505 30.2506 13.09 30.2506 14.1255C30.2506 15.161 31.0901 16.0005 32.1256 16.0005Z" fill="white"/>
<path d="M30.2506 39.7505H15.2506C10.4269 39.7505 6.50063 35.8255 6.50063 31.0005V16.0005C6.50063 11.1755 10.4269 7.25049 15.2506 7.25049H30.2506C35.0744 7.25049 39.0006 11.1755 39.0006 16.0005V31.0005C39.0006 35.8255 35.0744 39.7505 30.2506 39.7505ZM15.2506 9.75049C11.8044 9.75049 9.00063 12.5542 9.00063 16.0005V31.0005C9.00063 34.4467 11.8044 37.2505 15.2506 37.2505H30.2506C33.6969 37.2505 36.5006 34.4467 36.5006 31.0005V16.0005C36.5006 12.5542 33.6969 9.75049 30.2506 9.75049H15.2506Z" fill="white"/>
<defs>
<radialGradient id="paint0_radial_140_1237" cx="0" cy="0" r="1" gradientUnits="userSpaceOnUse" gradientTransform="translate(16.9756 46.0443) scale(56.1237)">
<stop stop-color="#FFDD55"/>
<stop offset="0.328" stop-color="#FF543F"/>
<stop offset="0.348" stop-color="#FC5245"/>
<stop offset="0.504" stop-color="#E64771"/>
<stop offset="0.643" stop-color="#D53E91"/>
<stop offset="0.761" stop-color="#CC39A4"/>
<stop offset="0.841" stop-color="#C837AB"/>
</radialGradient>
<radialGradient id="paint1_radial_140_1237" cx="0" cy="0" r="1" gradientUnits="userSpaceOnUse" gradientTransform="translate(7.48312 0.425919) scale(37.2662 24.8305)">
<stop stop-color="#4168C9"/>
<stop offset="0.999" stop-color="#4168C9" stop-opacity="0"/>
</radialGradient>
</defs>
</svg>
