<svg width="60" height="60" viewBox="0 0 60 60" fill="none" xmlns="http://www.w3.org/2000/svg">
<path d="M17.6562 43.985L5.54749 34.4537L11.5625 23.2812L28.8275 30L17.6562 43.985Z" fill="#F57C00"/>
<path d="M55 18.36L54.0625 47.2662L34.8438 55L23.2812 47.5L40.1562 30L55 18.36Z" fill="#1E88E5"/>
<path d="M55 18.36L39.765 36.3288L32.8125 13.75L39.4537 5.78125L55 18.36Z" fill="#2962FF"/>
<path d="M43.36 24.5312L29.0625 46.485L9.0625 53.75L12.2662 42.5L16.4062 28.5937L43.36 24.5312Z" fill="#AB47BC"/>
<path d="M16.4062 28.5937L5 24.7662L12.2662 5L27.8912 6.875L43.36 24.5312L16.4062 28.5937Z" fill="#E91E63"/>
<path d="M13.75 13.75H45V45H13.75V13.75Z" fill="#000001"/>
<path d="M17.5 39.375H28.75V41.25H17.5V39.375ZM25.625 19.8438V17.5H19.375V19.8438H21.25V27.9688H19.375V30.3125H25.625V27.9688H23.9488V19.8438H25.625ZM31.7187 30.625C29.375 30.625 28.13 29.2525 27.6562 28.69L29.42 26.6838C29.7387 27.0363 30.625 27.9688 31.7187 27.9688C33.125 27.9688 33.4375 26.5625 33.4375 25.7812V17.5H36.25V25.7812C36.25 26.5612 36.25 27.8125 35.3125 29.0625C34.6562 29.9375 33.125 30.625 31.7187 30.625Z" fill="white"/>
</svg>
