<svg width="60" height="60" viewBox="0 0 60 60" fill="none" xmlns="http://www.w3.org/2000/svg">
<path d="M29.5625 31.1225C28.315 29.1112 27.41 27.4437 26.1563 24.3037C24.0363 19 39.05 14.2075 32.9625 4.99875C35.6013 11.36 23.4913 15.2925 22.3663 20.59C21.3375 25.4625 29.5563 31.1225 29.5625 31.1225Z" fill="#F44336"/>
<path d="M29.8475 21.5875C29.6075 24.7325 32.6337 26.4087 32.7212 28.7063C32.7912 30.5763 30.9125 32.135 30.9125 32.135C30.9125 32.135 34.3225 31.465 35.3862 28.6125C36.5675 25.445 33.0937 23.2762 33.4512 20.74C33.785 18.3175 40.99 13.8113 40.99 13.8113C40.99 13.8113 30.3887 14.5138 29.8475 21.5875Z" fill="#F44336"/>
<path d="M40.105 31.3188C42.2975 30.8263 44.1463 32.2225 44.1463 33.8313C44.1463 37.4575 39.12 40.885 39.12 40.885C39.12 40.885 46.9013 39.9575 46.9013 34.0038C46.9013 30.0663 43.08 29.0825 40.105 31.3188ZM36.4113 34.2438C36.4113 34.2438 38.8375 32.515 39.4838 31.8663C33.53 33.13 19.9363 33.3 19.9363 32.2025C19.9363 31.1913 24.32 30.155 24.32 30.155C24.32 30.155 14.6038 30.015 14.6038 32.8813C14.6038 35.8688 27.3225 36.0825 36.4113 34.2438Z" fill="#1565C0"/>
<path d="M34.9187 36.9637C29.2825 38.8375 18.9012 38.2387 21.9762 35.7225C20.4787 35.7225 18.2587 36.9262 18.2587 38.0837C18.2587 40.405 29.4862 42.1975 37.7962 38.7988L34.9187 36.9637Z" fill="#1565C0"/>
<path d="M23.3575 40.9237C21.3125 40.9237 19.9888 42.2413 19.9888 43.2013C19.9888 46.19 32.1888 46.4912 37.0225 43.4575L33.95 41.4175C30.3388 43.005 21.2675 43.2237 23.3575 40.9237Z" fill="#1565C0"/>
<path d="M45.3512 45.79C45.3512 44.62 44.0325 44.0687 43.56 43.805C46.345 50.5212 15.6637 50 15.6637 46.035C15.6637 45.1337 17.9225 44.2513 20.01 44.6688L18.235 43.62C14.075 42.9675 11.25 44.7962 11.25 46.2712C11.25 53.15 45.3512 52.8188 45.3512 45.79Z" fill="#1565C0"/>
<path d="M48.75 48.255C43.5675 53.3737 30.4262 55.2387 17.2112 52.0762C30.4262 57.705 48.6875 54.535 48.75 48.255Z" fill="#1565C0"/>
</svg>
