<svg width="31" height="31" viewBox="0 0 31 31" fill="none" xmlns="http://www.w3.org/2000/svg">
<path d="M22.265 15.5C22.265 19.3052 19.1802 22.39 15.375 22.39C11.5698 22.39 8.485 19.3052 8.485 15.5C8.485 11.6947 11.5698 8.60999 15.375 8.60999C19.1802 8.60999 22.265 11.6947 22.265 15.5Z" fill="#FADB41" stroke="black" stroke-width="0.5"/>
<path d="M15.375 5.25348C14.7238 5.25348 14.197 4.72609 14.197 4.07548V2.648C14.197 1.99739 14.7238 1.47 15.375 1.47C16.0262 1.47 16.553 1.99739 16.553 2.648V4.07548C16.553 4.7261 16.0262 5.25348 15.375 5.25348Z" fill="#FADB41" stroke="black" stroke-width="0.5"/>
<path d="M22.6207 8.25451L22.6206 8.25448C22.1605 7.79449 22.1605 7.04863 22.6206 6.58864L22.6206 6.58862L23.6302 5.57919C23.6303 5.57918 23.6303 5.57917 23.6303 5.57915C24.0905 5.11926 24.8359 5.11918 25.296 5.57932L25.2961 5.57935C25.7562 6.03934 25.7562 6.78519 25.2961 7.24519L25.296 7.2452L24.2864 8.25464C24.2864 8.25465 24.2864 8.25466 24.2864 8.25467C24.0562 8.48469 23.7552 8.59965 23.4535 8.59965C23.1518 8.59965 22.8508 8.48469 22.6207 8.25451Z" fill="#FADB41" stroke="black" stroke-width="0.5"/>
<path d="M28.227 16.678H26.799C26.1478 16.678 25.621 16.1506 25.621 15.5C25.621 14.8494 26.1478 14.322 26.799 14.322H28.227C28.8782 14.322 29.405 14.8494 29.405 15.5C29.405 16.1506 28.8782 16.678 28.227 16.678Z" fill="#FADB41" stroke="black" stroke-width="0.5"/>
<path d="M23.6303 25.4209L23.6303 25.4208L22.6206 24.4114L22.6206 24.4114C22.1605 23.9514 22.1605 23.2055 22.6206 22.7455L22.6207 22.7455C23.0809 22.2853 23.8263 22.2852 24.2864 22.7453L24.2864 22.7453L25.296 23.7548L25.2961 23.7548C25.7562 24.2148 25.7562 24.9607 25.2961 25.4207L25.296 25.4207C25.0659 25.6509 24.7649 25.7658 24.4632 25.7658C24.1614 25.7658 23.8604 25.651 23.6303 25.4209Z" fill="#FADB41" stroke="black" stroke-width="0.5"/>
<path d="M15.375 29.53C14.7238 29.53 14.197 29.0026 14.197 28.352V26.9245C14.197 26.2739 14.7238 25.7465 15.375 25.7465C16.0262 25.7465 16.553 26.2739 16.553 26.9245V28.352C16.553 29.0026 16.0262 29.53 15.375 29.53Z" fill="#FADB41" stroke="black" stroke-width="0.5"/>
<path d="M5.45398 25.4207L5.45395 25.4207C4.99381 24.9607 4.99381 24.2148 5.45395 23.7548L5.45396 23.7548L6.46356 22.7454C6.46357 22.7454 6.46359 22.7453 6.4636 22.7453C6.92383 22.2854 7.66921 22.2853 8.12933 22.7455L8.12936 22.7455C8.58951 23.2055 8.58951 23.9514 8.12936 24.4114L8.12935 24.4114L7.11975 25.4208C6.88957 25.6508 6.58857 25.7658 6.28684 25.7658C5.98511 25.7658 5.68415 25.6509 5.45398 25.4207Z" fill="#FADB41" stroke="black" stroke-width="0.5"/>
<path d="M3.951 16.678H2.523C1.87185 16.678 1.345 16.1506 1.345 15.5C1.345 14.8494 1.87185 14.322 2.523 14.322H3.951C4.60216 14.322 5.129 14.8494 5.129 15.5C5.129 16.1506 4.60216 16.678 3.951 16.678Z" fill="#FADB41" stroke="black" stroke-width="0.5"/>
<path d="M6.46362 8.2547L6.4636 8.25468L5.45396 7.24521L5.45395 7.2452C4.99381 6.7852 4.99381 6.03935 5.45395 5.57935L5.45398 5.57933C5.9142 5.1191 6.65957 5.11901 7.1197 5.57915L7.11971 5.57916L8.12935 6.58863L8.12936 6.58865C8.58951 7.04864 8.58951 7.79449 8.12936 8.25449L8.12933 8.25452C7.89917 8.4847 7.5982 8.59966 7.29648 8.59966C6.99467 8.59966 6.69373 8.48481 6.46362 8.2547Z" fill="#FADB41" stroke="black" stroke-width="0.5"/>
</svg>
