<svg width="46" height="45" viewBox="0 0 46 45" fill="none" xmlns="http://www.w3.org/2000/svg">
<path d="M45.2381 38.75C45.2381 42.2025 42.4406 45 38.9881 45H6.48812C3.03687 45 0.238121 42.2025 0.238121 38.75V6.25C0.238121 2.7975 3.03687 0 6.48812 0H38.9881C42.4406 0 45.2381 2.7975 45.2381 6.25V38.75Z" fill="#0078D4"/>
<path opacity="0.05" d="M30.2381 38.75V26.1262C30.2381 24.015 29.2144 22.7537 27.4981 22.7537C26.4794 22.7537 25.7306 23.3275 25.2744 24.4587C25.2531 24.5387 25.2231 24.865 25.2356 25.8512L25.2381 38.75H16.4881V15H25.2381V16.3263C26.5156 15.445 28.0819 15 29.9106 15C35.5944 15 38.9869 18.8663 38.9869 25.3425L38.9881 38.75H30.2381ZM6.48812 38.75V15H10.8094C8.30562 15 6.48812 13.16 6.48812 10.6237C6.48812 8.09 8.33562 6.25 10.8806 6.25C13.3956 6.25 15.1869 8.03875 15.2381 10.5988C15.2381 13.1537 13.3894 15 10.8444 15H15.2381V38.75H6.48812Z" fill="black"/>
<path opacity="0.07" d="M30.8631 38.125V26.1262C30.8631 23.66 29.5744 22.1287 27.4981 22.1287C25.8794 22.1287 25.0794 23.2687 24.6944 24.225C24.5919 24.4737 24.6056 25.4612 24.6106 25.8825L24.6131 38.125H17.1131V15.625H24.6131V17.6725C25.6069 16.6438 27.2069 15.625 29.9106 15.625C35.2019 15.625 38.3619 19.2575 38.3619 25.3425L38.3631 38.125H30.8631ZM7.11312 38.125V15.625H14.6131V38.125H7.11312ZM10.8094 14.375C8.66812 14.375 7.11312 12.7975 7.11312 10.6237C7.11312 8.45125 8.69812 6.875 10.8806 6.875C13.0356 6.875 14.5694 8.41125 14.6131 10.6113C14.6131 12.7975 13.0281 14.375 10.8444 14.375H10.8094Z" fill="black"/>
<path d="M7.73812 16.25H13.9881V37.5H7.73812V16.25ZM10.8444 13.75H10.8094C8.94437 13.75 7.73812 12.36 7.73812 10.6237C7.73812 8.85 8.98187 7.5 10.8806 7.5C12.7819 7.5 13.9531 8.85 13.9881 10.6237C13.9881 12.3587 12.7819 13.75 10.8444 13.75ZM37.7381 37.5H31.4881V26.1262C31.4881 23.3787 29.9569 21.5037 27.4981 21.5037C25.6219 21.5037 24.6069 22.7688 24.1144 23.9913C23.9344 24.4288 23.9881 25.6388 23.9881 26.25V37.5H17.7381V16.25H23.9881V19.52C24.8894 18.125 26.3006 16.25 29.9106 16.25C34.3831 16.25 37.7369 19.0625 37.7369 25.3425L37.7381 37.5Z" fill="white"/>
</svg>
