<svg width="27" height="19" viewBox="0 0 27 19" fill="none" xmlns="http://www.w3.org/2000/svg">
<path d="M24.75 3.75H2.25C1.21875 3.75 0.375 2.90625 0.375 1.875C0.375 0.84375 1.21875 0 2.25 0H24.75C25.7812 0 26.625 0.84375 26.625 1.875C26.625 2.90625 25.7812 3.75 24.75 3.75Z" fill="url(#paint0_linear_257_833)"/>
<path d="M24.75 11.375H2.25C1.21875 11.375 0.375 10.5312 0.375 9.5C0.375 8.46875 1.21875 7.625 2.25 7.625H24.75C25.7812 7.625 26.625 8.46875 26.625 9.5C26.625 10.5312 25.7812 11.375 24.75 11.375Z" fill="url(#paint1_linear_257_833)"/>
<path d="M24.75 19H2.25C1.21875 19 0.375 18.1562 0.375 17.125C0.375 16.0938 1.21875 15.25 2.25 15.25H24.75C25.7812 15.25 26.625 16.0938 26.625 17.125C26.625 18.1562 25.7812 19 24.75 19Z" fill="url(#paint2_linear_257_833)"/>
<defs>
<linearGradient id="paint0_linear_257_833" x1="6.23313" y1="-5.39187" x2="20.1319" y2="8.50688" gradientUnits="userSpaceOnUse">
<stop stop-color="#0077D2"/>
<stop offset="1" stop-color="#0B59A2"/>
</linearGradient>
<linearGradient id="paint1_linear_257_833" x1="6.23313" y1="2.23313" x2="20.1319" y2="16.1319" gradientUnits="userSpaceOnUse">
<stop stop-color="#0077D2"/>
<stop offset="1" stop-color="#0B59A2"/>
</linearGradient>
<linearGradient id="paint2_linear_257_833" x1="6.23313" y1="9.85813" x2="20.1319" y2="23.7569" gradientUnits="userSpaceOnUse">
<stop stop-color="#0077D2"/>
<stop offset="1" stop-color="#0B59A2"/>
</linearGradient>
</defs>
</svg>
