<svg width="31" height="31" viewBox="0 0 31 31" fill="none" xmlns="http://www.w3.org/2000/svg">
<g clip-path="url(#clip0_342_238)">
<path d="M27.9408 19.1478C27.9419 19.1478 27.9428 19.1469 27.9428 19.1458C27.9428 19.1447 27.9419 19.1438 27.9408 19.1438C27.9396 19.1438 27.9388 19.1447 27.9388 19.1458C27.9388 19.1469 27.9396 19.1478 27.9408 19.1478Z" fill="black"/>
<path d="M24.2387 18.9087L24.2412 18.9112L24.2375 18.9137C24.0562 18.9799 23.9062 19.0074 23.78 19.0637C23.6512 19.1149 23.5475 19.2087 23.4862 19.3287L23.485 19.3312C23.4075 19.4749 23.34 19.7299 23.36 20.1637C23.4112 20.2012 23.4737 20.2299 23.5375 20.2499L23.5425 20.2512C23.7537 20.3162 24.1075 20.3587 24.5025 20.3524C25.29 20.3437 26.26 20.1574 26.775 19.9149C27.2187 19.7037 27.5988 19.4487 27.9375 19.1462C26.2175 19.5062 25.2462 19.4099 24.65 19.1612C24.495 19.0937 24.3587 19.0099 24.2387 18.9087Z" fill="#32648D"/>
<path d="M22.475 5.68872L22.482 5.69915L22.4901 5.70841L22.475 5.68872Z" fill="#32648D"/>
<path d="M15.8962 24.6237C15.895 24.5925 15.8962 24.56 15.895 24.5287C15.895 24.5162 15.8937 24.5075 15.8937 24.495L15.8962 24.6237Z" fill="#32648D"/>
<path d="M14.5775 19.1075C14.505 19.0713 14.42 19.045 14.3287 19.0325H14.325V19.03H14.2987C14.2337 19.0363 14.1387 19.0588 13.9537 19.265C13.5237 19.7525 13.3737 20.0588 13.0187 20.345C12.6637 20.63 12.2037 20.7825 11.2837 20.9738C10.9925 21.0338 10.825 21.1 10.715 21.1538C10.7512 21.1838 10.7475 21.1913 10.8012 21.22C10.9362 21.295 11.1087 21.3613 11.2487 21.3975C11.6437 21.4975 12.2937 21.6138 12.9712 21.4975C13.6487 21.38 14.3537 21.0513 14.955 20.1975C15.0587 20.05 15.07 19.8325 14.985 19.5988C14.9 19.365 14.71 19.1638 14.5775 19.1075Z" fill="#32648D"/>
<path d="M19.625 2.37744L19.5537 2.39119C19.5775 2.38619 19.6037 2.38369 19.6275 2.37869L19.625 2.37744Z" fill="#32648D"/>
<path d="M23.1025 9.125C22.2638 9.13625 21.7938 9.355 21.5463 9.64125C21.1963 10.0475 21.1638 10.76 21.3813 11.6375C21.5975 12.5162 22.0438 13.4987 22.4638 14.315C22.6738 14.7238 22.8775 15.0912 23.0413 15.39C23.2063 15.69 23.3275 15.9025 23.4013 16.0837C23.4688 16.2512 23.545 16.3988 23.6213 16.5363C23.9463 15.8425 24.0038 15.1613 23.9713 14.4513C23.9288 13.5725 23.7263 12.6737 23.7563 11.7637C23.79 10.7 23.9975 10.0075 24.015 9.185C23.7413 9.1475 23.4238 9.125 23.1025 9.125ZM23.2575 9.7575L23.2563 9.7675C23.2563 9.77125 23.2563 9.775 23.2563 9.78C23.2563 9.8375 23.24 9.8925 23.2113 9.9375L23.2125 9.93625C23.1738 10.0075 23.1288 10.07 23.0763 10.1237C22.9538 10.26 22.79 10.355 22.605 10.3875L22.6 10.3887C22.5738 10.3925 22.5438 10.3937 22.5125 10.3937C22.355 10.3937 22.21 10.3438 22.0913 10.2588L22.0938 10.26C22.0325 10.2175 21.9788 10.1687 21.935 10.1137L21.9338 10.1125C21.895 10.07 21.8675 10.015 21.8563 9.95625V9.95375C21.8563 9.9475 21.855 9.94125 21.855 9.935C21.855 9.88125 21.875 9.83125 21.9088 9.79375C21.9488 9.7475 21.9963 9.71 22.0513 9.6825L22.0538 9.68125C22.1725 9.61375 22.3325 9.56375 22.5138 9.53625C22.5813 9.52625 22.6488 9.52125 22.7113 9.52V9.52375H22.7725C22.8538 9.52625 22.9288 9.535 22.995 9.55125C23.0613 9.56625 23.1188 9.58875 23.165 9.62C23.2113 9.65125 23.2463 9.69875 23.2575 9.7575Z" fill="#32648D"/>
<path d="M9.34625 14.6337C9.34625 14.4087 9.36375 14.1887 9.39625 13.9725L9.39375 13.9962C9.52125 13.0725 9.53875 12.2087 9.52375 11.5262C9.50875 10.8612 9.46125 10.4187 9.46125 10.1425C9.46125 10.1387 9.46125 10.135 9.46125 10.1312C9.46125 10.1275 9.46125 10.1225 9.46125 10.1187V10.1125L9.46 10.105C9.46 10.1025 9.46 10.1 9.46 10.0975C9.46 8.61749 9.72 7.19874 10.1913 5.88249C10.5375 4.95249 11.0525 4.00874 11.8238 3.24374C11.065 2.99124 9.72 2.60624 8.2625 2.53374C8.1225 2.52624 7.95875 2.52124 7.795 2.52124L7.79375 2.52249C7.6375 2.52249 7.48 2.52749 7.325 2.53624C6.0775 2.60874 4.8975 2.97499 4.055 3.87999C3.21 4.78499 2.65375 6.26874 2.775 8.72499C2.79875 9.18999 2.99875 10.4925 3.34125 12.04C3.685 13.5875 4.16875 15.4087 4.75125 17.0175C5.335 18.6262 6.0425 20.0262 6.715 20.6887C7.05375 21.02 7.3475 21.1537 7.61375 21.1425C7.88125 21.13 8.20375 20.9737 8.5975 20.495C9.37125 19.5525 10.1025 18.7187 10.8575 17.9087L10.8325 17.935C9.92 17.1287 9.34625 15.95 9.34625 14.6337Z" fill="#32648D"/>
<path d="M15.995 2.46002V2.45752C14.535 2.46127 13.4888 2.90752 12.6938 3.57627C11.875 4.26752 11.3263 5.21377 10.965 6.18252C10.5363 7.33252 10.39 8.44502 10.3313 9.20002L10.3475 9.19002C10.7888 8.94002 11.3675 8.69002 11.9875 8.54502C12.6075 8.40002 13.275 8.35627 13.88 8.59377C14.485 8.83127 14.985 9.39002 15.1663 10.2375C16.035 14.3088 14.8963 15.8225 14.4763 16.965C14.3425 17.2938 14.2038 17.7163 14.0875 18.1475L14.0675 18.2313C14.12 18.2188 14.1738 18.2038 14.2263 18.1988C14.5225 18.1738 14.755 18.2738 14.8925 18.3338C15.315 18.5113 15.605 18.8838 15.7613 19.3088C15.8025 19.42 15.8313 19.54 15.8488 19.6638C15.865 19.7063 15.8738 19.7563 15.8738 19.8075C15.8738 19.8125 15.8738 19.8175 15.8738 19.8225C15.8538 20.4475 15.8413 21.1813 15.8413 21.9188C15.8413 22.7925 15.8588 23.6625 15.8913 24.5288C15.92 25.1863 15.9613 25.7688 16.0125 26.2275C16.0663 26.695 16.1413 27.0488 16.1888 27.1688C16.3463 27.5688 16.5775 28.0925 16.995 28.4488C17.4125 28.8038 18.0113 29.0413 19.105 28.8038C20.0538 28.5975 20.6388 28.3113 21.03 27.9C21.4213 27.4888 21.6538 26.9163 21.8025 26.04C22.0263 24.7275 22.475 20.9213 22.53 20.205C22.505 19.665 22.5838 19.25 22.755 18.9338C22.93 18.6088 23.2025 18.41 23.4363 18.3025C23.5538 18.2488 23.6638 18.2125 23.7538 18.1863C23.6438 18.0275 23.545 17.895 23.4425 17.7663L23.4538 17.78C23.13 17.385 22.8538 16.9313 22.645 16.4425L22.6313 16.4063C22.505 16.145 22.3988 15.9475 22.2875 15.7538L22.3138 15.8025C22.15 15.5025 21.9425 15.1275 21.725 14.7063C21.29 13.8625 20.8175 12.84 20.5713 11.8438C20.3263 10.8488 20.2913 9.81877 20.9188 9.09252C21.4738 8.44752 22.45 8.18002 23.9138 8.33002C23.8713 8.19877 23.845 8.09002 23.7713 7.91502C23.415 7.07752 22.9863 6.35502 22.4775 5.70002C21.2363 4.09752 19.23 2.51127 16.1325 2.46002H15.995Z" fill="#32648D"/>
<path d="M10.3138 10.2125L10.3163 10.2113L10.32 10.2075L10.3138 10.2125Z" fill="#32648D"/>
<path d="M12.1512 9.36584L12.1628 9.36468L12.1721 9.36121L12.1512 9.36584Z" fill="#32648D"/>
<path d="M13.7 16.6713C14.2012 15.3038 15.1875 14.3063 14.3575 10.4138C14.2212 9.7763 13.9525 9.5188 13.5825 9.3738C13.4025 9.30755 13.1937 9.2688 12.975 9.2688C12.9612 9.2688 12.9462 9.2688 12.9325 9.2688H12.935C12.6687 9.2713 12.4112 9.30505 12.1637 9.36505C11.6387 9.49755 11.1762 9.68505 10.7462 9.92505C10.585 10.0138 10.4462 10.1063 10.3162 10.21L10.2925 10.2325C10.3 10.415 10.335 10.8575 10.35 11.5088C10.365 12.2213 10.3475 13.13 10.2112 14.1138C9.91625 16.2513 11.4487 18.0213 13.2487 18.0238C13.355 17.585 13.5275 17.14 13.7 16.6713ZM12.6362 10.46C12.5775 10.4 12.53 10.3325 12.4912 10.2588L12.4887 10.2538C12.4562 10.2013 12.4375 10.1375 12.4375 10.0688C12.4375 10.0563 12.4387 10.0438 12.44 10.0313C12.4587 9.8963 12.5687 9.82755 12.675 9.7888C12.7737 9.7563 12.8837 9.73755 13.0012 9.73755C13.0187 9.73755 13.0362 9.73755 13.0562 9.7388L13.055 9.7338C13.12 9.7338 13.19 9.74005 13.26 9.75005C13.4487 9.7763 13.6175 9.82755 13.745 9.90255C13.8087 9.93755 13.8637 9.9813 13.9075 10.0338L13.9087 10.035C13.9512 10.0838 13.9762 10.1475 13.9762 10.2188C13.9762 10.2288 13.9762 10.2388 13.975 10.2488C13.9625 10.3238 13.9287 10.3875 13.8825 10.44C13.8312 10.5025 13.7737 10.5563 13.7087 10.6013L13.7062 10.6025C13.58 10.695 13.4212 10.75 13.25 10.75C13.2162 10.75 13.1825 10.7475 13.15 10.7438H13.1537C12.9462 10.7088 12.7687 10.6063 12.6362 10.46Z" fill="#32648D"/>
<path d="M10.7212 9.93856C10.7306 9.9332 10.74 9.93052 10.748 9.92516L10.752 9.92249L10.7212 9.93856Z" fill="#32648D"/>
<path d="M23.1438 5.18998C23.685 5.88373 24.1538 6.67373 24.515 7.52123L24.5413 7.58998C24.6775 7.91998 24.7688 8.19873 24.82 8.41498C24.8463 8.52373 24.8638 8.61498 24.87 8.70998C24.8725 8.75748 24.875 8.80623 24.855 8.88998C24.855 8.89373 24.8488 8.90248 24.8475 8.90623C24.885 10.0012 24.6163 10.7437 24.585 11.7887C24.56 12.5462 24.7513 13.4362 24.7988 14.4075C24.8438 15.32 24.735 16.3225 24.1488 17.3062C24.1988 17.3662 24.2425 17.4262 24.29 17.4862C25.8388 15.0175 26.955 12.2862 27.55 9.95748C27.8688 8.70373 28.0375 7.56748 28.0525 6.66748C28.065 5.76748 27.8988 5.11498 27.6888 4.84248C26.0313 2.69748 23.79 2.15123 21.91 2.13623L21.73 2.13748C21.005 2.14873 20.305 2.23248 19.6288 2.37873C21.1638 3.06873 22.3263 4.13123 23.1438 5.18998Z" fill="#32648D"/>
<path d="M16.2012 0.8225H16.1887C14.7337 0.7975 13.485 1.155 12.4762 1.75C11.4837 1.40125 9.425 0.8 7.25375 0.92C5.7425 1.00375 4.0925 1.46875 2.87 2.775C1.65125 4.08125 1.0075 6.1025 1.1425 8.8525C1.18 9.61125 1.39375 10.8487 1.7475 12.4512C2.1025 14.0537 2.6 15.93 3.22125 17.6412C3.8425 19.3537 4.5225 20.8912 5.58625 21.9362C6.1175 22.46 6.84875 22.9 7.71 22.8637C8.315 22.8387 8.86125 22.57 9.33375 22.1737C9.56375 22.48 9.80875 22.6137 10.0325 22.7375C10.3137 22.8937 10.5875 23 10.8712 23.07C11.3812 23.1987 12.2537 23.3712 13.2762 23.195C13.625 23.1362 13.9912 23.0212 14.3562 22.8575C14.37 23.27 14.3862 23.6737 14.4012 24.0825C14.4525 25.3775 14.4837 26.5737 14.8675 27.6225C14.9287 27.7937 15.0987 28.6762 15.765 29.455C16.4312 30.235 17.7387 30.7212 19.2262 30.3987C20.2762 30.1712 21.61 29.7612 22.4975 28.4837C23.3737 27.2212 23.7687 25.41 23.8475 22.4725C23.8675 22.3137 23.8912 22.1787 23.915 22.0525L24.1237 22.0712H24.1487C25.2687 22.1225 26.4837 21.9612 27.4987 21.4837C28.3975 21.0625 29.0775 20.6362 29.5737 19.88C29.6975 19.6925 29.8325 19.4662 29.87 19.0762C29.9075 18.6862 29.6862 18.0762 29.3187 17.795C28.5837 17.23 28.1225 17.445 27.6275 17.5487C27.1862 17.6525 26.6762 17.7175 26.1537 17.7312H26.1437C27.5712 15.2975 28.595 12.7125 29.1787 10.425C29.525 9.075 29.7187 7.83 29.7337 6.74125C29.75 5.6525 29.6625 4.68875 29.0175 3.855C27.0037 1.25 24.1725 0.53 21.9812 0.505C21.9137 0.50375 21.845 0.5025 21.7775 0.50375V0.5C20.585 0.51 19.4375 0.69 18.3512 1.01125L18.3 1.02875C17.6725 0.91125 16.9437 0.83625 16.2012 0.8225ZM19.1625 1.61875C19.9275 1.43 20.8075 1.31625 21.7125 1.305H21.72L21.7212 1.3C23.7937 1.28 26.44 1.86875 28.3412 4.3275C28.7687 4.88 28.8962 5.6875 28.8812 6.6825C28.865 7.67625 28.6837 8.86625 28.3512 10.17C27.7062 12.695 26.4887 15.6387 24.7737 18.28C24.83 18.3212 24.895 18.3575 24.9625 18.385L24.9687 18.3875C25.3262 18.5375 26.1425 18.6662 27.7712 18.3275C28.1812 18.24 28.4812 18.1812 28.7925 18.4212C28.9325 18.5412 29.02 18.7187 29.02 18.9175C29.02 18.93 29.02 18.9425 29.0187 18.955V18.9537C29 19.1125 28.9437 19.255 28.8575 19.3737C28.5425 19.8525 27.9212 20.3062 27.1262 20.68C26.4212 21.0125 25.41 21.1862 24.5137 21.1962C24.0637 21.2012 23.65 21.1662 23.2975 21.055L23.275 21.0462C23.1387 22.3712 22.8262 24.9875 22.6225 26.1812C22.46 27.1437 22.175 27.9087 21.63 28.4812C21.0862 29.0537 20.3175 29.3987 19.2825 29.6237C18.0012 29.9025 17.0662 29.6025 16.4637 29.0887C15.8625 28.5762 15.5875 27.8962 15.4212 27.48C15.3075 27.1925 15.2487 26.82 15.1912 26.3225C15.1337 25.825 15.0925 25.2162 15.0637 24.53C15.0362 23.8325 15.0212 23.0125 15.0212 22.1887C15.0212 21.9175 15.0237 21.6475 15.0262 21.3762C14.51 21.8562 13.8575 22.1937 13.1325 22.3225L13.11 22.3262C12.2587 22.4725 11.5 22.3287 11.0462 22.2137C10.805 22.1525 10.595 22.0662 10.3975 21.9587C10.19 21.8462 9.9925 21.7175 9.86 21.4662C9.8075 21.37 9.77625 21.2537 9.77625 21.1312C9.77625 21.0825 9.78125 21.0337 9.79125 20.9887C9.83625 20.8212 9.93 20.6787 10.0587 20.5787L10.06 20.5775C10.305 20.3762 10.6275 20.2637 11.1162 20.1612C12.0037 19.9762 12.3137 19.85 12.5025 19.6987C12.6625 19.5687 12.845 19.3062 13.165 18.9212C13.1637 18.91 13.1625 18.8912 13.1612 18.8737V18.87C12.5562 18.8525 11.9925 18.6887 11.5 18.4125L11.5187 18.4225C11.3337 18.62 10.3875 19.6325 9.235 21.0375C8.75 21.625 8.21375 21.9625 7.64875 21.9862C7.08375 22.01 6.5725 21.7225 6.1375 21.2962C5.26875 20.4425 4.57625 18.9737 3.9725 17.3137C3.37 15.6537 2.88 13.805 2.53125 12.23C2.18125 10.655 1.97625 9.385 1.94625 8.7725C1.81625 6.17 2.4175 4.41625 3.44875 3.31C4.48125 2.20375 5.89625 1.785 7.275 1.705C9.75125 1.56125 12.1012 2.435 12.5775 2.6225C13.495 1.9925 14.6762 1.6 16.15 1.625C16.8925 1.63625 17.6062 1.735 18.2887 1.91125L18.2262 1.8975L18.2512 1.88625C18.49 1.79625 18.795 1.705 19.1075 1.63L19.1625 1.61875Z" fill="black"/>
</g>
<defs>
<clipPath id="clip0_342_238">
<rect width="30" height="30" fill="white" transform="translate(0.5 0.5)"/>
</clipPath>
</defs>
</svg>
