<svg width="31" height="31" viewBox="0 0 31 31" fill="none" xmlns="http://www.w3.org/2000/svg">
<path d="M18.125 15.5C18.125 16.9513 16.9513 18.125 15.5 18.125C14.0488 18.125 12.875 16.9513 12.875 15.5C12.875 14.0488 14.0488 12.875 15.5 12.875C16.9513 12.875 18.125 14.0488 18.125 15.5Z" fill="#98CCFD"/>
<path d="M15.5 18.5C13.8455 18.5 12.5 17.1545 12.5 15.5C12.5 13.8455 13.8455 12.5 15.5 12.5C17.1545 12.5 18.5 13.8455 18.5 15.5C18.5 17.1545 17.1545 18.5 15.5 18.5ZM15.5 13.25C14.2595 13.25 13.25 14.2595 13.25 15.5C13.25 16.7405 14.2595 17.75 15.5 17.75C16.7405 17.75 17.75 16.7405 17.75 15.5C17.75 14.2595 16.7405 13.25 15.5 13.25Z" fill="#4788C7"/>
<path d="M30.125 15.5C30.125 13.403 27.941 11.576 24.506 10.4097C24.938 8.4065 24.9972 6.6185 24.6305 5.249C24.3245 4.1075 23.7448 3.28625 22.9085 2.80925C22.4053 2.52275 21.83 2.3765 21.1993 2.3765C19.544 2.3765 17.5295 3.42725 15.5015 5.21975C13.472 3.4265 11.4567 2.375 9.8 2.375C9.1685 2.375 8.594 2.5205 8.09075 2.80775C7.2545 3.2855 6.674 4.1075 6.36875 5.24975C6.002 6.61925 6.06125 8.40725 6.4925 10.4097C3.059 11.576 0.875 13.4037 0.875 15.5C0.875 17.5963 3.059 19.424 6.49325 20.5895C6.06125 22.592 6.002 24.38 6.3695 25.7495C6.67475 26.8925 7.25525 27.7138 8.09225 28.1922C8.5955 28.4788 9.17075 28.625 9.8015 28.625C9.80075 28.625 9.80225 28.625 9.8015 28.625C11.4575 28.625 13.4727 27.5743 15.5007 25.7803C17.5287 27.572 19.5432 28.622 21.1985 28.6228C21.1992 28.6228 21.1993 28.6228 21.1993 28.6228C21.8308 28.6228 22.4053 28.4772 22.9093 28.19C23.7447 27.713 24.3245 26.8918 24.6297 25.7502C24.9965 24.3808 24.9373 22.5928 24.506 20.5903C27.9403 19.4248 30.125 17.597 30.125 15.5ZM22.166 4.11275C22.6415 4.38425 22.9835 4.89725 23.1815 5.6375C23.4823 6.7595 23.423 8.26925 23.063 9.98C21.866 9.66725 20.5557 9.4295 19.157 9.2765C18.3245 8.15 17.4552 7.13525 16.577 6.24575C18.3748 4.6805 20.0255 3.87725 21.1993 3.87725C21.5668 3.87725 21.8915 3.95675 22.166 4.11275ZM19.838 17.9653C19.3482 18.803 18.845 19.5793 18.3358 20.3045C17.432 20.3832 16.4855 20.426 15.4993 20.426C14.5123 20.426 13.5658 20.3825 12.6613 20.3045C12.152 19.5793 11.6488 18.803 11.159 17.9653C10.682 17.1478 10.25 16.322 9.86075 15.5C10.25 14.6788 10.682 13.8522 11.1597 13.0347C11.6495 12.197 12.1535 11.4208 12.6627 10.6947C13.5665 10.616 14.5138 10.5732 15.5 10.5732C16.4862 10.5732 17.4328 10.616 18.3358 10.6947C18.845 11.4208 19.3482 12.1962 19.838 13.034C20.3158 13.8515 20.7485 14.678 21.1378 15.4993C20.7485 16.322 20.3158 17.1478 19.838 17.9653ZM21.9185 17.294C22.226 18.071 22.4855 18.833 22.6993 19.5702C21.9568 19.7638 21.1565 19.9288 20.3038 20.0615C20.5865 19.625 20.8647 19.181 21.1332 18.7213C21.4107 18.2472 21.6695 17.771 21.9185 17.294ZM15.5 23.7372C14.9532 23.1838 14.3997 22.5702 13.8463 21.8848C14.3892 21.9102 14.939 21.926 15.5 21.926C16.0603 21.926 16.61 21.9102 17.1522 21.8848C16.5995 22.5702 16.0468 23.1845 15.5 23.7372ZM10.6947 20.0615C9.84275 19.9288 9.0425 19.7638 8.3 19.5702C8.51375 18.833 8.7725 18.0717 9.08 17.2948C9.329 17.771 9.58775 18.248 9.8645 18.722C10.133 19.181 10.412 19.625 10.6947 20.0615ZM9.08 13.7052C8.7725 12.9283 8.51375 12.167 8.3 11.4298C9.0425 11.2362 9.84275 11.0712 10.6955 10.9385C10.4128 11.375 10.1337 11.819 9.86525 12.278C9.58775 12.7528 9.329 13.229 9.08 13.7052ZM15.5007 7.2635C16.0475 7.81625 16.6002 8.42975 17.1522 9.11525C16.61 9.08975 16.0603 9.074 15.5 9.074C14.9397 9.074 14.39 9.08975 13.8478 9.11525C14.4005 8.42975 14.954 7.81625 15.5007 7.2635ZM21.1332 12.278C20.8647 11.8183 20.5865 11.3742 20.3038 10.9377C21.1565 11.0705 21.9568 11.2355 22.6993 11.429C22.4855 12.167 22.226 12.9283 21.9185 13.706C21.6695 13.2297 21.4107 12.7528 21.1332 12.278ZM7.81775 5.63825C8.0165 4.8965 8.3585 4.38275 8.834 4.1105C9.1085 3.9545 9.43325 3.875 9.8 3.875C10.9752 3.875 12.626 4.679 14.4245 6.24575C13.5455 7.136 12.6755 8.15 11.8422 9.27725C10.4435 9.43025 9.13325 9.66875 7.93625 9.9815C7.57625 8.26925 7.517 6.7595 7.81775 5.63825ZM2.375 15.5C2.375 14.2032 4.04825 12.8255 6.86225 11.8573C7.20125 13.031 7.6535 14.2565 8.21 15.5C7.6535 16.7435 7.20125 17.969 6.86225 19.1427C4.04825 18.1745 2.375 16.7968 2.375 15.5ZM9.80075 27.125C9.43325 27.125 9.10775 27.0455 8.83475 26.8903C8.35775 26.618 8.01575 26.1043 7.81775 25.3625C7.517 24.2405 7.57625 22.7308 7.93625 21.02C9.13325 21.3328 10.4427 21.5705 11.8415 21.7235C12.6747 22.8507 13.5448 23.8655 14.4245 24.7557C12.626 26.3218 10.9753 27.125 9.80075 27.125ZM23.1807 25.3625C22.982 26.1028 22.6407 26.6157 22.1652 26.8872C21.8915 27.0432 21.566 27.1228 21.1985 27.1228C20.024 27.1228 18.3733 26.3195 16.5755 24.755C17.4545 23.8647 18.3237 22.85 19.1562 21.7235C20.555 21.5705 21.8645 21.332 23.0615 21.02C23.4223 22.7308 23.4815 24.2405 23.1807 25.3625ZM24.1362 19.1435C23.7972 17.9697 23.345 16.7443 22.7885 15.5C23.345 14.2557 23.7972 13.0303 24.1362 11.8565C26.951 12.8247 28.625 14.2032 28.625 15.5C28.625 16.7968 26.951 18.1753 24.1362 19.1435Z" fill="#98CCFD"/>
<path d="M9.8015 29C9.104 29 8.4665 28.838 7.9055 28.5185C6.97775 27.9875 6.33875 27.089 6.0065 25.8463C5.6525 24.5248 5.672 22.7983 6.059 20.8348C2.5205 19.565 0.5 17.6315 0.5 15.5C0.5 13.3685 2.5205 11.435 6.059 10.1645C5.67125 8.20177 5.6525 6.47452 6.0065 5.15302C6.33875 3.91102 6.97775 3.01252 7.90475 2.48227C9.79475 1.40377 12.5382 2.18752 15.5007 4.72327C18.4625 2.18977 21.2038 1.40677 23.0945 2.48377C24.0208 3.01252 24.6598 3.91027 24.9928 5.15227C25.3468 6.47452 25.3272 8.20177 24.9395 10.1645C28.4787 11.4343 30.5 13.3685 30.5 15.5C30.5 17.6315 28.4787 19.5658 24.9395 20.8363C25.328 22.799 25.346 24.5255 24.992 25.8478C24.6597 27.0898 24.0215 27.9875 23.0953 28.5163C21.203 29.5948 18.4595 28.8095 15.5 26.2775C13.418 28.0603 11.453 29 9.8015 29ZM9.8 2.75002C9.23525 2.75002 8.72225 2.87902 8.27675 3.13327C7.52975 3.56077 7.01 4.30552 6.73175 5.34652C6.38825 6.62677 6.43325 8.35027 6.86 10.331L6.9305 10.658L6.614 10.766C3.2045 11.9225 1.25 13.6483 1.25 15.5C1.25 17.3518 3.2045 19.0775 6.61325 20.2348L6.92975 20.3428L6.85925 20.6698C6.4325 22.6505 6.3875 24.374 6.731 25.6543C7.00925 26.696 7.529 27.4408 8.2775 27.8683C8.72375 28.121 9.236 28.25 9.80075 28.25H9.8015C11.3105 28.25 13.2455 27.2735 15.2518 25.4998L15.5 25.28L15.7482 25.4998C17.7537 27.2713 19.6895 28.2478 21.1985 28.2478C21.764 28.2478 22.277 28.1188 22.724 27.8645C23.4695 27.4385 23.9893 26.6945 24.2675 25.6535C24.611 24.3733 24.566 22.6505 24.1392 20.6698L24.0687 20.3428L24.3853 20.2348C27.7948 19.0783 29.75 17.3518 29.75 15.5C29.75 13.6475 27.7948 11.9218 24.3853 10.7653L24.0687 10.6573L24.14 10.3303C24.5667 8.34952 24.6117 6.62602 24.2682 5.34577C23.9893 4.30402 23.4695 3.56077 22.7225 3.13477C22.2762 2.88052 21.764 2.75152 21.1993 2.75152C19.691 2.75152 17.756 3.72802 15.749 5.50102L15.5007 5.72077L15.2525 5.50102C13.2455 3.72727 11.3097 2.75002 9.8 2.75002ZM9.80075 27.5C9.368 27.5 8.98025 27.4048 8.6495 27.2158C8.0825 26.8918 7.6805 26.3008 7.45475 25.4593C7.14875 24.314 7.1885 22.7518 7.56875 20.9428L7.64975 20.558L8.03 20.657C9.22325 20.9683 10.5177 21.2023 11.8813 21.3508L12.044 21.3688L12.1423 21.5C12.947 22.5883 13.805 23.5948 14.69 24.4918L14.9705 24.776L14.6698 25.0385C12.848 26.6255 11.1185 27.5 9.80075 27.5ZM8.22725 21.4798C7.87625 23.0098 7.86575 24.3125 8.18 25.265C8.3885 25.8958 8.63375 26.3435 9.02075 26.564C9.99125 27.1183 11.8805 26.3863 13.8755 24.7295C13.1007 23.9195 12.3492 23.0293 11.6375 22.0775C10.4427 21.941 9.2975 21.74 8.22725 21.4798ZM21.1993 27.4978C19.8815 27.4978 18.152 26.624 16.331 25.0378L16.0303 24.776L16.3107 24.4918C17.1995 23.5903 18.056 22.5845 18.8563 21.5008L18.9538 21.3688L19.1173 21.3508C20.4815 21.2015 21.7782 20.9683 22.97 20.657L23.351 20.558L23.4313 20.9428C23.8115 22.7533 23.8512 24.3148 23.5445 25.4593C23.3188 26.3 22.9175 26.8903 22.3527 27.2128C22.0197 27.4025 21.632 27.4978 21.1993 27.4978ZM17.1245 24.7295C19.1195 26.3848 21.0028 27.1175 21.9808 26.5618C22.3655 26.3428 22.61 25.895 22.8185 25.2658C23.135 24.3125 23.1222 23.0098 22.772 21.4805C21.7017 21.7408 20.5565 21.941 19.3602 22.0783C18.653 23.0263 17.9023 23.9158 17.1245 24.7295ZM15.5 24.2713L15.2338 24.0013C14.654 23.4148 14.0892 22.7825 13.5553 22.1203L13.0303 21.47L13.8643 21.5098C14.9375 21.5608 16.0625 21.5608 17.135 21.5098L17.9683 21.47L17.4447 22.1195C16.9123 22.7788 16.3483 23.4118 15.767 23.9998L15.5 24.2713ZM14.6735 22.2905C14.9428 22.6033 15.2195 22.907 15.5 23.1995C15.7805 22.9055 16.0557 22.6025 16.3258 22.2905C15.779 22.3048 15.2203 22.3048 14.6735 22.2905ZM15.5 20.801C14.537 20.801 13.5718 20.7598 12.6298 20.678L12.4557 20.663L12.3553 20.5198C11.8145 19.7495 11.3038 18.953 10.8365 18.1543C10.3722 17.3585 9.92975 16.52 9.52175 15.6605L9.44525 15.5L9.52175 15.3395C9.92975 14.48 10.3722 13.6408 10.8365 12.8458C11.309 12.0373 11.8062 11.264 12.3568 10.4795L12.4572 10.337L12.6312 10.322C14.5122 10.1585 16.4877 10.1585 18.368 10.322L18.542 10.337L18.6425 10.4803C19.1945 11.2678 19.6917 12.0418 20.1613 12.8458C20.63 13.6483 21.0725 14.4868 21.476 15.3403L21.5518 15.5L21.476 15.6605C21.0725 16.5133 20.63 17.3525 20.1613 18.155C19.6917 18.959 19.1945 19.733 18.6425 20.5205L18.542 20.6638L18.368 20.6788C17.4275 20.7598 16.463 20.801 15.5 20.801ZM12.8682 19.946C14.6 20.0863 16.4008 20.0863 18.1295 19.946C18.6298 19.2253 19.0835 18.5135 19.5148 17.7763C19.943 17.0435 20.3487 16.2785 20.7222 15.5C20.3487 14.7215 19.943 13.9565 19.5148 13.2238C19.0843 12.4865 18.6298 11.7748 18.1295 11.054C16.4 10.9138 14.5963 10.9138 12.8698 11.054C12.371 11.7725 11.9165 12.4835 11.483 13.2245C11.0592 13.9505 10.6528 14.7155 10.2755 15.5C10.6528 16.2838 11.0585 17.0488 11.483 17.7763C11.9113 18.5075 12.377 19.2365 12.8682 19.946ZM19.5328 20.5618L19.988 19.8583C20.2677 19.4263 20.543 18.9868 20.8092 18.533C21.0837 18.0635 21.3395 17.5918 21.5855 17.1208L21.965 16.3948L22.2665 17.1568C22.5702 17.924 22.8372 18.7018 23.0592 19.4675L23.1665 19.838L22.7938 19.9348C22.031 20.1328 21.2135 20.3008 20.3615 20.4335L19.5328 20.5618ZM21.8592 18.2C21.7288 18.437 21.5945 18.6748 21.4565 18.9118C21.3305 19.1278 21.2015 19.34 21.0718 19.55C21.4678 19.475 21.8533 19.3933 22.2267 19.3033C22.1143 18.9358 21.9913 18.5675 21.8592 18.2ZM11.4657 20.5618L10.637 20.4328C9.785 20.3 8.96675 20.132 8.20625 19.934L7.8335 19.8373L7.94075 19.4675C8.16125 18.7048 8.4275 17.9278 8.73275 17.1575L9.03425 16.3948L9.41375 17.1223C9.659 17.5933 9.91475 18.0643 10.1892 18.5338C10.4548 18.9875 10.7308 19.427 11.0105 19.859L11.4657 20.5618ZM8.77175 19.3018C9.14375 19.391 9.52925 19.4735 9.9245 19.5485C9.79475 19.3393 9.6665 19.127 9.5405 18.911C9.40175 18.6748 9.269 18.4378 9.1385 18.2C9.0065 18.569 8.88425 18.9365 8.77175 19.3018ZM23.885 19.6265L23.7755 19.2478C23.441 18.0868 22.9932 16.8778 22.4465 15.6538L22.3775 15.5L22.4465 15.347C22.9932 14.1245 23.441 12.9148 23.7762 11.753L23.8857 11.3743L24.2593 11.5025C27.2278 12.5233 29 14.018 29 15.5C29 16.9828 27.2277 18.4768 24.2585 19.4983L23.885 19.6265ZM23.1987 15.5C23.6712 16.5703 24.068 17.63 24.383 18.6568C26.7447 17.7793 28.25 16.559 28.25 15.5C28.25 14.441 26.7447 13.2208 24.383 12.3433C24.068 13.3715 23.6705 14.4305 23.1987 15.5ZM7.11275 19.6258L6.74 19.4975C3.77225 18.476 2 16.982 2 15.5C2 14.018 3.77225 12.524 6.74 11.5025L7.11275 11.3743L7.22225 11.753C7.559 12.9185 8.006 14.1283 8.55125 15.347L8.621 15.5L8.552 15.653C8.006 16.8718 7.55975 18.0815 7.223 19.247L7.11275 19.6258ZM6.61625 12.3433C4.2545 13.2215 2.75 14.4418 2.75 15.5C2.75 16.5583 4.2545 17.7785 6.61625 18.6568C6.932 17.6255 7.32875 16.5665 7.79975 15.5C7.32875 14.4335 6.932 13.3745 6.61625 12.3433ZM9.0335 14.6068L8.732 13.844C8.4275 13.0738 8.1605 12.2968 7.94 11.534L7.83275 11.1643L8.2055 11.0675C8.9675 10.8695 9.785 10.7015 10.637 10.5688L11.4665 10.4398L11.009 11.144C10.7292 11.5753 10.454 12.0148 10.1877 12.4685C9.91325 12.9373 9.6575 13.409 9.41225 13.88L9.0335 14.6068ZM8.77175 11.6983C8.8835 12.0635 9.0065 12.4318 9.1385 12.8C9.269 12.563 9.4025 12.326 9.5405 12.089C9.6665 11.8738 9.79475 11.6615 9.9245 11.4515C9.52925 11.5258 9.14375 11.609 8.77175 11.6983ZM21.965 14.6068L21.5855 13.88C21.3395 13.4083 21.0837 12.9373 20.8092 12.4678C20.5438 12.014 20.2677 11.5745 19.988 11.1425L19.5328 10.439L20.3608 10.568C21.2135 10.7008 22.0325 10.8688 22.793 11.0675L23.1658 11.1643L23.0585 11.5348C22.8365 12.2998 22.5702 13.0775 22.2658 13.8455L21.965 14.6068ZM21.0725 11.4508C21.2022 11.6608 21.3313 11.873 21.4573 12.089C21.596 12.326 21.7295 12.563 21.86 12.8008C21.992 12.4325 22.115 12.0643 22.2275 11.6983C21.8547 11.6083 21.4685 11.5258 21.0725 11.4508ZM23.3488 10.4428L22.9685 10.3438C21.7782 10.0325 20.4823 9.79927 19.1157 9.65002L18.9523 9.63202L18.8547 9.50002C18.0522 8.41327 17.1958 7.40677 16.3092 6.50977L16.0287 6.22552L16.3295 5.96302C18.7513 3.85477 21.0117 3.02377 22.3498 3.78727C22.916 4.11052 23.3173 4.70077 23.543 5.54077C23.849 6.68602 23.8092 8.24827 23.429 10.058L23.3488 10.4428ZM19.3602 8.92177C20.558 9.05902 21.7025 9.26002 22.772 9.52027C23.1597 8.09002 23.2145 6.82402 22.8193 5.73427C22.5928 5.11177 22.3662 4.65802 21.98 4.43752C21.0065 3.88252 19.121 4.61452 17.1252 6.27052C17.9 7.08127 18.6507 7.97152 19.3602 8.92177ZM7.6505 10.4428L7.5695 10.058C7.1885 8.24827 7.14875 6.68677 7.4555 5.54152C7.68125 4.69927 8.0825 4.10827 8.64875 3.78577C9.9905 3.02077 12.2495 3.85402 14.6713 5.96377L14.9728 6.22627L14.6915 6.51052C13.8035 7.40827 12.947 8.41477 12.1445 9.50077L12.047 9.63277L11.8835 9.65077C10.52 9.80002 9.22325 10.0333 8.03075 10.3445L7.6505 10.4428ZM9.8 4.25002C9.49925 4.25002 9.23675 4.31227 9.01925 4.43677C8.63375 4.65652 8.43875 5.12377 8.18 5.73502C7.775 6.69127 7.84325 7.99327 8.22725 9.52027C9.29825 9.26002 10.4427 9.05902 11.639 8.92177C12.3485 7.97152 13.1 7.08202 13.8762 6.27127C12.3245 4.98277 10.8523 4.25002 9.8 4.25002ZM13.0317 9.52927L13.556 8.87977C14.0885 8.21977 14.6533 7.58752 15.2338 6.99952L15.5 6.72952L15.7662 6.99952C16.349 7.58977 16.913 8.22202 17.4432 8.87902L17.966 9.52852L17.1335 9.48952C16.061 9.43927 14.936 9.43927 13.8643 9.48952L13.0317 9.52927ZM15.5 8.69902C15.7775 8.69902 16.0527 8.70277 16.3258 8.70952C16.058 8.39827 15.7812 8.09527 15.5007 7.80127C15.2202 8.09452 14.9443 8.39752 14.675 8.70952C14.948 8.70277 15.2225 8.69902 15.5 8.69902Z" fill="#4788C7"/>
</svg>
