<svg width="31" height="31" viewBox="0 0 31 31" fill="none" xmlns="http://www.w3.org/2000/svg">
<path d="M27.9887 15.2719C28.0319 12.6088 27.4319 9.44188 26.1819 5.72625L25.2019 2.8125L23.8706 5.58313C23.7994 5.73125 23.7181 5.87625 23.6331 6.01938C21.4462 4.14188 18.6087 3 15.5 3C8.59625 3 3 8.59625 3 15.5C3 22.4038 8.59625 28 15.5 28C22.4037 28 28 22.4038 28 15.5C28 15.4231 27.99 15.3488 27.9887 15.2719Z" fill="#8BC34A"/>
<path d="M25.1156 20.8487C23.1637 23.5375 19.7087 23.6819 16.4569 23.625H12.2187H11.0075C13.775 22.6294 15.4219 22.3925 17.1037 21.5C20.2712 19.8344 23.4025 16.19 24.0544 12.3987C22.8481 16.0462 19.1925 19.18 15.8612 20.4544C13.5787 21.325 9.45625 22.17 9.45625 22.17L9.28937 22.0794C6.48312 20.6675 6.39812 14.3837 11.5 12.355C13.7337 11.4656 15.8706 11.9544 18.2837 11.3594C20.86 10.7269 23.84 8.72937 25.0525 6.125C26.41 10.2919 28.0437 16.8162 25.1156 20.8487ZM10.2925 24.5281C10.1162 24.7469 9.84687 24.875 9.56562 24.875C9.05125 24.875 8.63125 24.4519 8.63125 23.9375C8.63125 23.4231 9.05437 23 9.56562 23C9.77875 23 9.98875 23.0737 10.1537 23.21C10.5537 23.5344 10.6162 24.1281 10.2925 24.5281Z" fill="white"/>
</svg>
