<svg width="60" height="60" viewBox="0 0 60 60" fill="none" xmlns="http://www.w3.org/2000/svg">
<path d="M18.384 21.765C22.6092 16.6398 24.9528 13.7976 29.178 13.7976C36.8364 13.7976 38.82 19.7412 44.0982 23.6454C46.2 25.2 52.188 26.8908 54.3006 21.765C52.188 28.8126 47.9628 32.016 43.737 32.016C40.6332 32.016 36.6 28.8 32.9094 24.648C28.3602 19.5312 20.4972 19.2024 18.384 21.765Z" fill="#31C4F3"/>
<path d="M5.6994 35.9514C9.9246 30.8262 12.2682 27.984 16.4934 27.984C24.1518 27.984 26.3088 33.7032 31.4136 37.8318C33.6 39.6 39.5028 41.0766 41.616 35.9514C39.5034 42.999 35.2776 46.2018 31.0524 46.2018C27.9486 46.2024 24 43.2 20.2242 38.8344C15.7458 33.6558 7.812 33.3888 5.6994 35.9514Z" fill="#31C4F3"/>
<path d="M43.737 32.6154C39.978 32.6154 35.5302 28.4994 32.4606 25.0464C29.607 21.8364 25.5858 20.7306 22.7874 20.8002C20.9886 20.8338 19.5162 21.3366 18.8484 22.1454L18.8478 22.146C18.6366 22.4022 18.2586 22.4382 18.003 22.2276C17.7474 22.017 17.7102 21.6396 17.9214 21.384C17.922 21.3822 17.9232 21.381 17.9244 21.3798C22.131 16.2774 24.6714 13.1976 29.1786 13.1976C34.6734 13.1976 37.3728 16.0974 40.2306 19.1682C41.508 20.5404 42.8292 21.9594 44.4558 23.163C45.6696 24.06 48.399 25.0422 50.67 24.4086C52.0884 24.0144 53.1234 23.0472 53.7462 21.5364C53.868 21.2412 54.2016 21.0936 54.5016 21.1992C54.8028 21.3066 54.9672 21.6306 54.876 21.9366C52.8708 28.6236 48.7068 32.6154 43.737 32.6154ZM22.9758 19.5984C26.0358 19.5984 30.3036 20.814 33.3576 24.2496C37.4652 28.8708 41.1516 31.4154 43.737 31.4154C47.2716 31.4154 50.3718 29.0568 52.413 24.9552C51.9774 25.218 51.5028 25.4226 50.9916 25.5648C48.1806 26.3472 45.0534 25.098 43.7418 24.1272C42.0258 22.8582 40.6668 21.3972 39.3522 19.9854C36.5616 16.9866 34.1514 14.3976 29.1786 14.3976C25.8954 14.3976 23.7726 16.3068 20.7762 19.8306C21.3846 19.6926 22.053 19.614 22.7652 19.6008C22.8348 19.599 22.905 19.5984 22.9758 19.5984Z" fill="#1F212B"/>
<path d="M31.0518 46.8024C28.002 46.8024 23.9952 44.1126 19.77 39.2274C17.0112 36.0372 13.0248 34.932 10.2342 34.9686C8.37119 34.9902 6.84899 35.5002 6.16199 36.3318L6.16139 36.3324C5.95019 36.5892 5.57339 36.6246 5.31659 36.414C5.06099 36.2028 5.02439 35.8254 5.23559 35.5698C5.23619 35.5686 5.23739 35.5674 5.23799 35.5662C9.44459 30.4638 11.985 27.384 16.4922 27.384C22.188 27.384 24.9828 30.4044 27.9426 33.6018C29.121 34.8756 30.3402 36.192 31.7898 37.3644C33.0996 38.424 35.652 39.2556 37.7994 38.7054C39.3054 38.3208 40.4022 37.3176 41.0604 35.7216C41.1828 35.4258 41.5158 35.2776 41.8158 35.3844C42.117 35.4918 42.2814 35.8158 42.1902 36.1218C40.1862 42.8106 36.0222 46.8024 31.0518 46.8024ZM10.3542 33.7674C13.4166 33.7674 17.694 34.9914 20.6784 38.442C24.672 43.059 28.3566 45.6024 31.0524 45.6024C34.5708 45.6024 37.659 43.2654 39.7008 39.1974C39.2136 39.4956 38.6778 39.7212 38.0982 39.8688C35.5434 40.5222 32.6118 39.5724 31.0368 38.298C29.52 37.0716 28.2714 35.7222 27.0636 34.4172C24.1668 31.287 21.6648 28.584 16.494 28.584C13.2138 28.584 11.0916 30.4896 8.09939 34.0068C8.74499 33.8586 9.45899 33.777 10.2216 33.7686C10.2648 33.768 10.3098 33.7674 10.3542 33.7674Z" fill="#1F212B"/>
<path d="M35.6544 41.7402C33.1812 41.7402 30.6402 40.248 29.4252 39.2646C28.1166 38.2062 26.9142 36.8784 25.7508 35.595C23.145 32.7174 20.6838 30 17.1 30C16.9344 30 16.8 29.8656 16.8 29.7C16.8 29.5344 16.9344 29.4 17.1 29.4C20.9496 29.4 23.6166 32.3442 26.1954 35.1918C27.3432 36.459 28.53 37.7694 29.802 38.7984C31.0908 39.8406 33.945 41.4948 36.4758 41.0748C36.6384 41.0454 36.7932 41.1588 36.8208 41.3214C36.8478 41.4846 36.7374 41.6394 36.5736 41.6664C36.2706 41.7168 35.9628 41.7402 35.6544 41.7402Z" fill="black"/>
<path d="M11.7 31.8C11.6028 31.8 11.508 31.7532 11.4498 31.6662C11.358 31.5288 11.3952 31.3422 11.5332 31.2504C13.041 30.2448 14.0892 29.6964 15.6348 29.4894C15.7986 29.4624 15.9498 29.5824 15.972 29.7468C15.9942 29.9112 15.879 30.0618 15.7146 30.084C14.286 30.2754 13.2978 30.7956 11.8662 31.7496C11.8152 31.7838 11.7576 31.8 11.7 31.8Z" fill="black"/>
<path d="M48.5544 27.6402C46.0812 27.6402 43.5402 26.148 42.3252 25.1646C41.0166 24.1062 39.8142 22.7784 38.6508 21.495C36.045 18.6174 33.5838 15.9 30 15.9C29.8344 15.9 29.7 15.7656 29.7 15.6C29.7 15.4344 29.8344 15.3 30 15.3C33.8496 15.3 36.5166 18.2442 39.0954 21.0918C40.2432 22.359 41.43 23.6694 42.702 24.6984C43.9908 25.7406 46.8462 27.3906 49.3758 26.9748C49.5396 26.943 49.6938 27.0588 49.7208 27.2214C49.7478 27.3846 49.6374 27.5394 49.4736 27.5664C49.1706 27.6168 48.8628 27.6402 48.5544 27.6402Z" fill="black"/>
<path d="M24.6 17.7C24.5028 17.7 24.408 17.6532 24.3498 17.5662C24.258 17.4288 24.2952 17.2422 24.4332 17.1504C25.7772 16.2546 26.7546 15.7206 28.0674 15.465C28.2312 15.4374 28.3878 15.54 28.419 15.7026C28.4508 15.8652 28.344 16.023 28.1814 16.0548C26.9682 16.2906 26.0448 16.797 24.7656 17.6496C24.7152 17.6838 24.6576 17.7 24.6 17.7Z" fill="black"/>
</svg>
