<svg width="29" height="19" viewBox="0 0 29 19" fill="none" xmlns="http://www.w3.org/2000/svg">
<g clip-path="url(#clip0_257_838)">
<path d="M0.873749 0.75H28.3737V17.625H0.873749V0.75Z" fill="#ECEFF1"/>
<path d="M0.875 0.75H28.375V2.625H0.875V0.75ZM0.875 4.5H28.375V6.375H0.875V4.5ZM0.875 8.25H28.375V10.125H0.875V8.25ZM0.875 12H28.375V13.875H0.875V12ZM0.875 15.75H28.375V17.625H0.875V15.75Z" fill="#F44336"/>
<path d="M0.875 0.75H14V10.125H0.875V0.75Z" fill="#3F51B5"/>
<path d="M2.28125 2L2.57062 2.6175L3.21875 2.71625L2.75 3.1975L2.86125 3.875L2.28125 3.555L1.70125 3.875L1.8125 3.1975L1.34375 2.71625L1.99187 2.6175L2.28125 2ZM4.78125 2L5.07063 2.6175L5.71875 2.71625L5.25 3.1975L5.36125 3.875L4.78125 3.555L4.20125 3.875L4.3125 3.1975L3.84375 2.71625L4.49188 2.6175L4.78125 2ZM7.28125 2L7.57063 2.6175L8.21875 2.71625L7.75 3.1975L7.86125 3.875L7.28125 3.555L6.70125 3.875L6.8125 3.1975L6.34375 2.71625L6.99187 2.6175L7.28125 2ZM9.78125 2L10.0706 2.6175L10.7188 2.71625L10.25 3.1975L10.3612 3.875L9.78125 3.555L9.20125 3.875L9.3125 3.1975L8.84375 2.71625L9.49187 2.6175L9.78125 2ZM12.125 2L12.4144 2.6175L13.0625 2.71625L12.5938 3.1975L12.705 3.875L12.125 3.555L11.545 3.875L11.6562 3.1975L11.1875 2.71625L11.8356 2.6175L12.125 2ZM2.28125 7L2.57062 7.6175L3.21875 7.71625L2.75 8.1975L2.86125 8.875L2.28125 8.555L1.70125 8.875L1.8125 8.1975L1.34375 7.71625L1.99187 7.6175L2.28125 7ZM4.78125 7L5.07063 7.6175L5.71875 7.71625L5.25 8.1975L5.36125 8.875L4.78125 8.555L4.20125 8.875L4.3125 8.1975L3.84375 7.71625L4.49188 7.6175L4.78125 7ZM7.28125 7L7.57063 7.6175L8.21875 7.71625L7.75 8.1975L7.86125 8.875L7.28125 8.555L6.70125 8.875L6.8125 8.1975L6.34375 7.71625L6.99187 7.6175L7.28125 7ZM9.78125 7L10.0706 7.6175L10.7188 7.71625L10.25 8.1975L10.3612 8.875L9.78125 8.555L9.20125 8.875L9.3125 8.1975L8.84375 7.71625L9.49187 7.6175L9.78125 7ZM12.125 7L12.4144 7.6175L13.0625 7.71625L12.5938 8.1975L12.705 8.875L12.125 8.555L11.545 8.875L11.6562 8.1975L11.1875 7.71625L11.8356 7.6175L12.125 7ZM2.90625 4.5L3.19562 5.1175L3.84375 5.21625L3.375 5.6975L3.48625 6.375L2.90625 6.055L2.32625 6.375L2.4375 5.6975L1.96875 5.21625L2.61688 5.1175L2.90625 4.5ZM5.40625 4.5L5.69563 5.1175L6.34375 5.21625L5.875 5.6975L5.98625 6.375L5.40625 6.055L4.82625 6.375L4.9375 5.6975L4.46875 5.21625L5.11687 5.1175L5.40625 4.5ZM7.90625 4.5L8.19563 5.1175L8.84375 5.21625L8.375 5.6975L8.48625 6.375L7.90625 6.055L7.32625 6.375L7.4375 5.6975L6.96875 5.21625L7.61687 5.1175L7.90625 4.5ZM10.4062 4.5L10.6956 5.1175L11.3438 5.21625L10.875 5.6975L10.9862 6.375L10.4062 6.055L9.82625 6.375L9.9375 5.6975L9.46875 5.21625L10.1169 5.1175L10.4062 4.5ZM12.75 4.5L13.0394 5.1175L13.6875 5.21625L13.2188 5.6975L13.33 6.375L12.75 6.055L12.17 6.375L12.2812 5.6975L11.8125 5.21625L12.4606 5.1175L12.75 4.5Z" fill="white"/>
</g>
<defs>
<clipPath id="clip0_257_838">
<rect width="28" height="18" fill="white" transform="translate(0.625 0.5)"/>
</clipPath>
</defs>
</svg>
