<svg width="60" height="60" viewBox="0 0 60 60" fill="none" xmlns="http://www.w3.org/2000/svg">
<path d="M55 13.8875V46.1125C55 47.7 54.0125 49.1125 52.525 49.6375L41.5 54.8125L42.5 41.25V18.75L41.5 5.1875L52.525 10.3625C54.0125 10.8875 55 12.3 55 13.8875Z" fill="#29B6F6"/>
<path d="M11.25 42.37L42.5 18.75V6.69124C42.5 5.19374 40.6475 4.49374 39.6563 5.61624L5.82252 36.5487C4.69752 37.5862 4.76127 39.3825 5.95627 40.3387C5.95627 40.3387 7.61127 41.8787 8.21002 42.3062C9.13002 42.9625 10.3388 43.0375 11.25 42.37Z" fill="#0277BD"/>
<path d="M11.25 17.63L42.5 41.25V53.3088C42.5 54.8063 40.6475 55.5063 39.6563 54.3838L5.82252 23.4513C4.69752 22.4138 4.76127 20.6175 5.95627 19.6613C5.95627 19.6613 7.61127 18.1213 8.21002 17.6938C9.13002 17.0375 10.3388 16.9625 11.25 17.63Z" fill="#0288D1"/>
</svg>
